<svg width="671.9187499999999px" height="183.2px" xmlns="http://www.w3.org/2000/svg" viewBox="-85.95937499999997 -16.599999999999994 671.9187499999999 183.2" style="background: rgba(0, 0, 0, 0);" preserveAspectRatio="xMidYMid"><filter id="editing-goldstamp"><feFlood flood-color="#797549" result="flood"></feFlood><feMorphology operator="dilate" radius="2" in="SourceGraphic" result="outline"></feMorphology><feComposite operator="in" in="flood" in2="outline" result="outline2"></feComposite><feGaussianBlur stdDeviation="4" in="SourceAlpha" result="blur"></feGaussianBlur><feSpecularLighting surfaceScale="2" specularConstant="0.7" specularExponent="10" lighting-color="#white" in="blur" result="specular"><fePointLight x="200" y="-1000" z="300"></fePointLight></feSpecularLighting><feComposite operator="in" in="specular" in2="SourceGraphic" result="specular2"></feComposite><feComposite in="SourceGraphic" in2="specular2" operator="arithmetic" k1="3" k2="2" k3="1" k4="0" result="specular3"></feComposite><feMerge><feMergeNode in="outline2"></feMergeNode><feMergeNode in="specular3"></feMergeNode></feMerge></filter><g filter="url(#editing-goldstamp)"><g transform="translate(13.049982786178589, 122.89500427246094)"><path d="M12.36 0L1.03 0L13.39-67.98L35.54-67.98L51.60-21.22L60.15-67.98L71.59-67.88L59.02 0L35.43 0L20.60-45.01L12.36 0ZM78.64-3.09L78.64-3.09L78.64-3.09Q76.22-5.77 75.14-9.99L75.14-9.99L75.14-9.99Q74.06-14.21 74.06-21.12L74.06-21.12L74.06-21.12Q74.06-28.02 76.43-34.30L76.43-34.30L76.43-34.30Q78.80-40.58 83.12-45.11L83.12-45.11L83.12-45.11Q91.98-54.59 106.61-54.59L106.61-54.59L106.61-54.59Q111.86-54.59 115.67-52.84L115.67-52.84L133.28-54.59L125.66-14.42L125.66-14.42Q125.35-13.18 125.35-10.92L125.35-10.92L125.35-10.92Q125.35-8.65 126.74-7.21L126.74-7.21L126.74-7.21Q128.13-5.77 130.19-5.56L130.19-5.56L130.19-5.56Q129.16-2.06 125.40 0L125.40 0L125.40 0Q121.64 2.06 117.42 2.06L117.42 2.06L117.42 2.06Q113.20 2.06 110.36 0.46L110.36 0.46L110.36 0.46Q107.53-1.13 106.71-3.81L106.71-3.81L106.71-3.81Q105.06-1.24 101.56 0.41L101.56 0.41L101.56 0.41Q98.06 2.06 93.37 2.06L93.37 2.06L93.37 2.06Q88.68 2.06 84.87 0.82L84.87 0.82L84.87 0.82Q81.06-0.41 78.64-3.09ZM100.37-44.91L100.37-44.91L100.37-44.91Q99.19-43.05 98.16-39.91L98.16-39.91L98.16-39.91Q97.13-36.77 95.43-28.38L95.43-28.38L95.43-28.38Q93.73-19.98 93.73-14.01L93.73-14.01L93.73-14.01Q93.73-8.03 94.66-6.28L94.66-6.28L94.66-6.28Q95.58-4.53 97.23-4.53L97.23-4.53L97.23-4.53Q100.53-4.53 102.95-7.67L102.95-7.67L102.95-7.67Q105.37-10.82 106.30-16.38L106.30-16.38L111.76-46.56L111.76-46.56Q109.59-48.41 107.07-48.41L107.07-48.41L107.07-48.41Q104.55-48.41 103.05-47.59L103.05-47.59L103.05-47.59Q101.56-46.76 100.37-44.91ZM145.75-43.05L145.75-43.05L145.75-43.05Q149.25-48.00 154.55-51.29L154.55-51.29L154.55-51.29Q159.86-54.59 166.35-54.59L166.35-54.59L166.35-54.59Q172.83-54.59 175.92-52.53L175.92-52.53L196.11-54.59L189.11-15.04L189.11-15.04Q185.50 5.15 177.88 13.08L177.88 13.08L177.88 13.08Q170.57 20.60 156.35 20.60L156.35 20.60L156.35 20.60Q145.54 20.60 139.36 17.20L139.36 17.20L139.36 17.20Q133.18 13.80 133.18 8.14L133.18 8.14L133.18 8.14Q133.18 3.91 136.37 1.49L136.37 1.49L136.37 1.49Q139.56-0.93 144.51-0.93L144.51-0.93L144.51-0.93Q148.84-0.93 152.13 1.03L152.13 1.03L152.13 1.03Q154.09 2.06 155.02 3.50L155.02 3.50L155.02 3.50Q152.65 5.56 152.65 8.96L152.65 8.96L152.65 8.96Q152.65 13.39 156.77 13.39L156.77 13.39L156.77 13.39Q163.67 13.39 167.58-2.88L167.58-2.88L167.58-2.88Q168.71-7.31 169.64-11.74L169.64-11.74L169.64-11.74Q165.01-6.08 154.50-6.08L154.50-6.08L154.50-6.08Q147.19-6.08 142.96-9.58L142.96-9.58L142.96-9.58Q138.74-13.08 138.74-21.32L138.74-21.32L138.74-21.32Q138.74-26.47 140.49-32.29L140.49-32.29L140.49-32.29Q142.24-38.11 145.75-43.05ZM159.14-21.01L159.14-21.01L159.14-21.01Q159.14-14.01 162.74-14.01L162.74-14.01L162.74-14.01Q165.21-14.01 167.58-16.69L167.58-16.69L167.58-16.69Q169.44-18.85 170.16-22.04L170.16-22.04L175.41-48.51L175.41-48.51Q174.89-48.62 174.38-48.82L174.38-48.82L174.38-48.82Q173.35-49.23 172.01-49.23L172.01-49.23L172.01-49.23Q165.73-49.23 162.02-38.93L162.02-38.93L162.02-38.93Q159.14-30.90 159.14-21.01ZM204.61-3.09L204.61-3.09L204.61-3.09Q202.19-5.77 201.11-9.99L201.11-9.99L201.11-9.99Q200.03-14.21 200.03-21.12L200.03-21.12L200.03-21.12Q200.03-28.02 202.40-34.30L202.40-34.30L202.40-34.30Q204.76-40.58 209.09-45.11L209.09-45.11L209.09-45.11Q217.95-54.59 232.57-54.59L232.57-54.59L232.57-54.59Q237.83-54.59 241.64-52.84L241.64-52.84L259.25-54.59L251.63-14.42L251.63-14.42Q251.32-13.18 251.32-10.92L251.32-10.92L251.32-10.92Q251.32-8.65 252.71-7.21L252.71-7.21L252.71-7.21Q254.10-5.77 256.16-5.56L256.16-5.56L256.16-5.56Q255.13-2.06 251.37 0L251.37 0L251.37 0Q247.61 2.06 243.39 2.06L243.39 2.06L243.39 2.06Q239.17 2.06 236.33 0.46L236.33 0.46L236.33 0.46Q233.50-1.13 232.68-3.81L232.68-3.81L232.68-3.81Q231.03-1.24 227.53 0.41L227.53 0.41L227.53 0.41Q224.03 2.06 219.34 2.06L219.34 2.06L219.34 2.06Q214.65 2.06 210.84 0.82L210.84 0.82L210.84 0.82Q207.03-0.41 204.61-3.09ZM226.34-44.91L226.34-44.91L226.34-44.91Q225.16-43.05 224.13-39.91L224.13-39.91L224.13-39.91Q223.10-36.77 221.40-28.38L221.40-28.38L221.40-28.38Q219.70-19.98 219.70-14.01L219.70-14.01L219.70-14.01Q219.70-8.03 220.63-6.28L220.63-6.28L220.63-6.28Q221.55-4.53 223.20-4.53L223.20-4.53L223.20-4.53Q226.50-4.53 228.92-7.67L228.92-7.67L228.92-7.67Q231.34-10.82 232.27-16.38L232.27-16.38L237.72-46.56L237.72-46.56Q235.56-48.41 233.04-48.41L233.04-48.41L233.04-48.41Q230.51-48.41 229.02-47.59L229.02-47.59L229.02-47.59Q227.53-46.76 226.34-44.91ZM297.05-28.94L297.05-28.94L297.05-28.94Q300.76-35.54 300.76-42.23L300.76-42.23L300.76-42.23Q300.76-46.66 297.57-46.66L297.57-46.66L297.57-46.66Q295.10-46.66 292.52-42.44L292.52-42.44L292.52-42.44Q289.84-38.21 289.02-32.75L289.02-32.75L283.66 0L262.34 2.06L272.85-52.53L289.84-54.59L287.99-44.19L287.99-44.19Q293.04-54.59 304.37-54.59L304.37-54.59L304.37-54.59Q310.34-54.59 313.58-51.50L313.58-51.50L313.58-51.50Q316.83-48.41 316.83-42.08L316.83-42.08L316.83-42.08Q316.83-35.74 312.66-31.72L312.66-31.72L312.66-31.72Q308.49-27.71 301.38-27.71L301.38-27.71L301.38-27.71Q298.29-27.71 297.05-28.94ZM304.16 12.26L304.16 12.26L304.16 12.26Q309.52 11.85 313.43 5.15L313.43 5.15L313.43 5.15Q316.42 0 318.37-9.48L318.37-9.48L326.72-52.53L347.42-54.59L338.66-9.48L338.66-9.48Q335.27 7.73 330.01 13.39L330.01 13.39L330.01 13.39Q327.23 16.48 323.63 17.51L323.63 17.51L323.63 17.51Q320.02 18.54 315.90 18.54L315.90 18.54L315.90 18.54Q307.25 18.54 304.16 12.26ZM328.36-66.85L328.36-66.85L328.36-66.85Q328.36-70.86 331.71-73.03L331.71-73.03L331.71-73.03Q335.06-75.19 339.90-75.19L339.90-75.19L339.90-75.19Q344.74-75.19 347.68-73.03L347.68-73.03L347.68-73.03Q350.61-70.86 350.61-66.85L350.61-66.85L350.61-66.85Q350.61-62.83 347.37-60.77L347.37-60.77L347.37-60.77Q344.12-58.71 339.28-58.71L339.28-58.71L339.28-58.71Q334.44-58.71 331.40-60.77L331.40-60.77L331.40-60.77Q328.36-62.83 328.36-66.85ZM384.19-4.33L384.19-4.33L384.19-4.33Q379.25 2.06 366.99 2.06L366.99 2.06L366.99 2.06Q360.60 2.06 355.97-1.80L355.97-1.80L355.97-1.80Q351.33-5.67 351.33-11.23L351.33-11.23L351.33-11.23Q351.33-14.32 351.64-15.86L351.64-15.86L358.54-52.53L379.45-54.59L371.93-14.83L371.93-14.83Q371.52-12.57 371.52-11.23L371.52-11.23L371.52-11.23Q371.52-5.25 375.13-5.25L375.13-5.25L375.13-5.25Q379.14-5.25 382.03-10.71L382.03-10.71L382.03-10.71Q382.95-12.46 383.37-14.73L383.37-14.73L390.68-52.53L410.97-54.59L403.35-14.42L403.35-14.42Q403.04-12.88 403.04-11.23L403.04-11.23L403.04-11.23Q403.04-9.58 403.97-7.78L403.97-7.78L403.97-7.78Q404.89-5.97 407.88-5.56L407.88-5.56L407.88-5.56Q407.26-3.09 405.10-1.44L405.10-1.44L405.10-1.44Q400.57 2.06 395.67 2.06L395.67 2.06L395.67 2.06Q390.78 2.06 387.90 0.31L387.90 0.31L387.90 0.31Q385.01-1.44 384.19-4.33ZM460.10 2.06L460.10 2.06L460.10 2.06Q447.64 2.06 447.64-7.62L447.64-7.62L447.64-7.62Q447.74-10.30 448.57-14.83L448.57-14.83L450.42-24.31L450.42-24.31Q453.20-37.70 453.20-40.69L453.20-40.69L453.20-40.69Q453.20-46.66 449.70-46.66L449.70-46.66L449.70-46.66Q443.83-46.66 440.74-31.31L440.74-31.31L434.66 0L413.96 2.06L424.67-52.63L441.56-54.59L439.91-44.50L439.91-44.50Q444.75-54.59 459.59-54.59L459.59-54.59L459.59-54.59Q466.80-54.59 469.83-51.55L469.83-51.55L469.83-51.55Q472.87-48.51 472.87-41.72L472.87-41.72L472.87-41.72Q472.87-35.33 469.58-20.39L469.58-20.39L469.58-20.39Q468.03-13.70 468.03-11.18L468.03-11.18L468.03-11.18Q468.03-8.65 469.42-7.21L469.42-7.21L469.42-7.21Q470.81-5.77 472.87-5.56L472.87-5.56L472.87-5.56Q471.84-2.06 468.29 0L468.29 0L468.29 0Q464.74 2.06 460.10 2.06Z" fill="#999569"></path></g></g><style>text {
  font-size: 64px;
  font-family: Arial Black;
  dominant-baseline: central;
  text-anchor: middle;
}</style></svg>